# xmcd
#
# Track frame offsets:
#	150
#	13127
#	26033
#	37643
#	52681
#	65322
#	74242
#	85018
#	93830
#	106884
#	114239
#	124761
#	135393
#	149053
#	169394
#	181027
#	191678
#	200732
#	210296
#	221263
#	233967
#	244903
#	251385
#
# Disc length: 3501 seconds
#
# Revision: 0
# Processed by: cddbd v1.5.1PL0 Copyright (c) Steve Scherf et al.
# Submitted via: audiograbber 1.83.01
#
DISCID=3d0dab17
DTITLE=амтымгс йуяитсгс  - тА ЛЫЯАЗТИЙА мО2
DYEAR=1900
DGENRE=дглотийа
TTITLE0=йаимоуяциа коциа
TTITLE1=тессеяа вяомиа с' ацапы
TTITLE2=циа сема яоуса л'
TTITLE3=о йалпос епяасимгсе
TTITLE4=ма валгкымам та боума
TTITLE5=ейеи ьгка поу пас стг жтеяг
TTITLE6=о йоййояас
TTITLE7=ле лаяамам ои помои
TTITLE8=пеябокаяиа
TTITLE9=аяадиамг
TTITLE10=ема поуки латфоуяама лоу
TTITLE11=лпгйам йопекес сто вояо
TTITLE12=саяамта пакгйаяиа
TTITLE13=бовазтисса
TTITLE14=какато агдоми какато
TTITLE15=сокол йаяайыста
TTITLE16=стгм йемтглемг соу подиа
TTITLE17=сйаямата бкава л'  сйаямата
TTITLE18=бкавоукам еяобокаце
TTITLE19=елахе о кацос
TTITLE20=лгко лоу яодойоййимо
TTITLE21=пападопоука
TTITLE22=лиа йуяиайитса то пяыи
EXTD=
EXTT0=
EXTT1=
EXTT2=
EXTT3=
EXTT4=
EXTT5=
EXTT6=
EXTT7=
EXTT8=
EXTT9=
EXTT10=
EXTT11=
EXTT12=
EXTT13=
EXTT14=
EXTT15=
EXTT16=
EXTT17=
EXTT18=
EXTT19=
EXTT20=
EXTT21=
EXTT22=
PLAYORDER=
